<?xml version="1.0" encoding="UTF-8"?>
<svg id="Capa_1" xmlns="http://www.w3.org/2000/svg" version="1.1" viewBox="0 0 595.3 841.9">
  <!-- Generator: Adobe Illustrator 29.1.0, SVG Export Plug-In . SVG Version: 2.1.0 Build 142)  -->
  <g id="Capa_11" data-name="Capa_1">
    <g>
      <path d="M211.4,307.2c9.2-.6,10.9-5.9,31.8-12.6,13.4-4.4,17.4-3.7,18.2-6.5h0c2.4-8.1-24.3-30.3-52.9-28.6-12.8.7-32.2,6.6-34.2,17.8-2.3,12.9,19.2,31,37,29.9h0Z"/>
      <path d="M333.2,285.9c.8,2.8,4.8,2.1,18.2,6.5,20.9,6.7,22.6,12,31.8,12.6,17.8,1.1,39.3-17,37-29.9-2-11.2-21.4-17.1-34.2-17.8-28.6-1.7-55.3,20.5-52.9,28.5h.1Z"/>
      <path d="M480.8,471.6c-2.7-4.8-2.4-9.8-2-14.1,1.8-20.3,17.5-30,13.2-38.3-2-3.9-5.9-2.5-7.5-6.6-3-7.7,9.6-14.6,7.9-24.7-1.1-6.7-6.9-5.8-10-13.3-5.4-13.3,9.1-28.5,3.3-32.7-3.7-2.6-8.4,1.7-13.6-.9-9.9-4.9-2.7-25.7-10.3-30.9-11-7.5-33.3,30.3-68.8,32.3-13.1.8-22.5-3.7-30.6-8.1-2.5-6.1-6-11.3-10.8-15.5-2.2-1.9-4.5-3.4-6.7-4.9-4.8-3.2-8.9-6-12-12.2-5.6-11.1-3.2-23.5-.5-33.1.3-1.1.7-2.2,1-3.3,16.9,0,32.7-20.4,59.7-29.6,40.3-13.7,66.9,10.5,80.5-5.6h0c13-15.4-3.1-47-4.2-49.2-14.5-27.9-49.4-48.2-84.2-44.1-1-2.5-2.4-4.8-4.4-7-10.6-11.8-27.4-19.2-39.6-23.2-16.2-5.4-33.9-8.2-49.8-8-32.3.4-60.6,10.6-78.5,28,0,0-7,8.6-7.6,12.1-33.3-2-66,17.7-79.9,44.5-1.1,2.2-17.2,33.8-4.2,49.1h0c13.6,16.2,40.2-8,80.5,5.7,29.2,9.9,45.3,32.8,63.8,29.2,3.5,7.9,7.4,19.7,3,28.6-2.1,4.2-5.4,6.4-9.9,9.4s-3.1,2.1-4.7,3.2c-.5.4-7.4,5.4-15.4,15.9-10.3,5-21.2,13.7-39.1,12.7-35.5-2-57.8-39.8-68.8-32.3-7.6,5.2-.4,26-10.3,30.9-5.2,2.6-9.9-1.7-13.6.9-5.8,4.2,8.7,19.4,3.3,32.7-3.1,7.5-8.9,6.6-10,13.3-1.7,10.1,10.9,17,7.9,24.7-1.6,4.1-5.5,2.7-7.5,6.6-4.3,8.3,11.4,18,13.2,38.3.4,4.3.7,9.3-2,14.1-3.2,5.7-8.4,6.9-8.4,10.3s7,6.6,10.6,8.4c21.6,10.6,21.6,39.2,34.2,46-14.8,13.3-25,37.1-27,58.6-2.6,27.7,11.2,58,39,85.3,37.8,37.2,91.5,59,140.9,59.4,59.9.5,121.2-52.9,134.4-67.6,17.9-20,55.1-61.5,41.1-103-3.9-11.5-12.1-23.3-22.6-32,6.6-10.9,7.1-32.4,25-41.2,3.6-1.8,10.6-5,10.6-8.4s-5.2-4.6-8.4-10.3h-.2ZM461,568.7c11,32.7-22,69.5-37.9,87.2-12.1,13.6-49.1,54.9-106.7,61.4-25.1,2.8-52.5-1.2-79.2-11.7-24.7-9.7-48.2-24.7-66.2-42.3-23.9-23.5-36.4-49.9-34.2-72.4,2.8-28.9,20.1-52.7,33.7-54.5.7,0,1.5,0,2.2,0,9.5,0,20.1,7.9,28.8,14.3,10.2,7.5,19.7,14.6,28.3,8.1,5.9-4.5,5-11.6,4.3-16.8-.6-4.3-1.2-9.2.3-14.8,2.1-8,7.1-11.4,13.3-15.7,4.9-3.4,10.5-7.3,14.6-13.8,5.3-8.4,8.4-14,8-26.4-.6-14.3-4.3-30.9,5.6-63.3,5.4-17.7,8.1-19.4,8.6-29.9.9-19.4-6.8-46.2-23.8-54.7.9-.8,1.7-1.4,2.4-1.9,1.3-1,2.7-1.9,4.2-2.8,5.4-3.6,11.5-7.6,15.5-15.7,7.8-15.7,1.5-33.2-3.3-43.6.6-.7,1.1-1.4,1.7-2.2,5.2-7.8,3.6-17.2,2.8-21.5-12.1-69.1-49.7-89-62.8-94,.1-.4.3-.7.4-1l.6-.6c14.4-15.5,40.4-25.1,69.4-25.4,29.4-.4,64.1,11.2,77.2,25.9.2.2.4.5.6.7-15.6,7.3-47.6,29.5-58.6,92.2-.8,4.3-2.4,13.7,2.8,21.5,1.4,2.1,3,3.7,4.7,5.1-.4,1.5-.9,2.9-1.3,4.4-2.1,7.3-7.5,26.6,1.7,44.7,5,9.9,11.8,14.5,17.4,18.2-.8.2-1.5.5-2.3.8-18.4,7.3-26.7,35.4-25.8,55.6.5,10.5,3.2,12.2,8.6,29.9,15,49.2,1.1,66.3,17.1,87.5,5.1,6.8,10.2,9.8,14.8,12.4,12.3,7.5,14.1,13.5,15,16,3.3,9.3.5,16.4-1.1,21.2-.2.5-.3,1-.5,1.5-.3,1.2-.5,2.3-.4,3.1,0,2.2.8,4.5,3.1,6.4,1.7,1.5,6.5,4.4,13.3-1,1.8-1.4,3.9-3.5,6.4-5.8,8.3-8,20.8-20.1,34.3-20.8,16.3-.8,36.2,15.4,42.6,34.6h-.2Z"/>
      <path d="M277.7,538.4c-2.8-3-7.1-7.4-12.7-7.4h0c-.9,0-1.8,0-2.7.4-3.2.9-6,3.3-7.8,6.9-2,4.1-2.3,9-.8,12.8,1.6,3.8,4.6,5.5,7.5,7,1.1.6,2.4,1.3,3.8,2.2,4.3,2.7,8.1,6.2,11.6,10.5.9,1.2,2.4,1.9,3.9,1.9h0c2.3,0,4.3-1.6,4.9-3.8.9-3.7,1.7-9.6,0-16.3-1.7-6.6-2.4-8.8-7.7-14.2h0Z"/>
      <path d="M335.3,531.2c-.8-.2-1.7-.4-2.7-.4l-.2.2c-5.6,0-9.9,4.4-12.7,7.3-5.3,5.5-6,7.6-7.6,14.2-1.7,6.7-.9,12.6,0,16.3.6,2.2,2.6,3.8,4.9,3.8h.1c1.5,0,3-.7,3.9-1.9,3.5-4.3,7.2-7.8,11.6-10.5,1.4-.9,2.7-1.6,3.8-2.2,2.9-1.6,5.9-3.2,7.5-7.1,1.5-3.7,1.2-8.6-.8-12.8-1.8-3.6-4.6-6.1-7.8-6.9h0Z"/>
      <path d="M238.8,608.2c.4-1.5,1-4.6-.9-7h0c-1.4-1.7-4.3-2.5-6.4-1.8s-3.4,1.1-5.9,4.2l-15.5,26.2c-1.3,2.2-1.3,5.1,0,7.4.6,1.1,1.6,1.8,2.7,2.2,1.5.9,4.1,2,8.7,3.3,2.5.7,9,2.3,14.5,2.3s8.7-1.6,10.3-4.7c1.5-3,.8-6.3-1.9-10.1-7.9-10.6-5.6-21.9-5.6-21.9h0Z"/>
    </g>
  </g>
</svg>